# Blender v2.93.5 OBJ File: 'zegar.blend'
# www.blender.org
o Prostokąt
v -0.380949 -0.568163 0.030000
v -0.472961 -0.530050 0.030000
v -0.532116 -0.470895 0.030000
v -0.570229 -0.378883 0.030000
v 0.570229 -0.378883 0.030000
v 0.532116 -0.470895 0.030000
v 0.472961 -0.530050 0.030000
v 0.380949 -0.568163 0.030000
v -0.472961 0.470050 0.030000
v -0.380949 0.508163 0.030000
v -0.532116 0.410895 0.030000
v -0.570229 0.318883 0.030000
v 0.380949 0.508163 0.030000
v 0.472961 0.470050 0.030000
v 0.532116 0.410895 0.030000
v 0.570229 0.318883 0.030000
vt 0.166016 0.999732
vt 0.000301 0.824071
vt 0.166016 0.000852
vt 0.000301 0.176512
vt 0.033668 0.091121
vt 0.085459 0.036222
vt 0.833059 0.000852
vt 0.833059 0.999732
vt 0.913615 0.036222
vt 0.998774 0.176512
vt 0.965406 0.091121
vt 0.998774 0.824071
vt 0.965406 0.909463
vt 0.913615 0.964361
vt 0.085459 0.964361
vt 0.033668 0.909463
vn 0.0000 -0.0000 1.0000
s off
f 10/1/1 12/2/1 1/3/1
f 12/2/1 4/4/1 1/3/1
f 4/4/1 3/5/1 1/3/1
f 3/5/1 2/6/1 1/3/1
f 1/3/1 8/7/1 13/8/1
f 8/7/1 7/9/1 5/10/1
f 7/9/1 6/11/1 5/10/1
f 5/10/1 16/12/1 13/8/1
f 16/12/1 15/13/1 13/8/1
f 15/13/1 14/14/1 13/8/1
f 13/8/1 10/1/1 1/3/1
f 10/1/1 9/15/1 12/2/1
f 9/15/1 11/16/1 12/2/1
f 8/7/1 5/10/1 13/8/1
