# Blender v2.93.5 OBJ File: 'zegar.blend'
# www.blender.org
o Prostokąt.004
v 0.387138 -0.382907 0.031219
v 0.375387 -0.378040 0.031219
v 0.364621 -0.367274 0.031219
v 0.359753 -0.355523 0.031219
v 0.565457 -0.355523 0.031219
v 0.560590 -0.367274 0.031219
v 0.549824 -0.378040 0.031219
v 0.538073 -0.382907 0.031219
v 0.375387 -0.182071 0.031219
v 0.387138 -0.177204 0.031219
v 0.364621 -0.192837 0.031219
v 0.359753 -0.204588 0.031219
v 0.538073 -0.177204 0.031219
v 0.549824 -0.182071 0.031219
v 0.560590 -0.192837 0.031219
v 0.565457 -0.204588 0.031219
vt 0.133125 0.000000
vt 1.000000 0.133124
vt 0.866876 1.000000
vt 0.000000 0.866875
vt 0.000000 0.133124
vt 0.023662 0.075999
vt 0.075999 0.023662
vt 0.866876 0.000000
vt 0.924001 0.023662
vt 0.976338 0.075999
vt 1.000000 0.866875
vt 0.976338 0.924001
vt 0.924001 0.976338
vt 0.133125 1.000000
vt 0.075999 0.976338
vt 0.023662 0.924001
vn -0.0000 -0.0000 1.0000
s off
f 1/1/1 5/2/1 13/3/1
f 12/4/1 4/5/1 1/1/1
f 4/5/1 3/6/1 1/1/1
f 3/6/1 2/7/1 1/1/1
f 1/1/1 8/8/1 5/2/1
f 8/8/1 7/9/1 5/2/1
f 7/9/1 6/10/1 5/2/1
f 5/2/1 16/11/1 13/3/1
f 16/11/1 15/12/1 13/3/1
f 15/12/1 14/13/1 13/3/1
f 13/3/1 10/14/1 12/4/1
f 10/14/1 9/15/1 12/4/1
f 9/15/1 11/16/1 12/4/1
f 12/4/1 1/1/1 13/3/1
